<svg id="Capa_1" data-name="Capa 1" xmlns="http://www.w3.org/2000/svg" viewBox="0 0 92.373 92.372"><defs><style>.cls-1{fill:#d1579a;}.cls-2{fill:#fff;}</style></defs><title>personajes-vectores</title><path class="cls-1" d="M92.373,46.182A46.187,46.187,0,1,1,46.185,0,46.19,46.19,0,0,1,92.373,46.182"/><path class="cls-2" d="M60.052,68.592a5.868,5.868,0,0,0,7.974-6.739,5.758,5.758,0,0,0,3.914-1.72A5.867,5.867,0,0,0,72.3,52.2a5.89,5.89,0,0,0,0-10.684,5.877,5.877,0,0,0-4.269-9.641,5.949,5.949,0,0,0,.151-1.31,5.884,5.884,0,0,0-5.885-5.886,5.972,5.972,0,0,0-2.24.445,5.89,5.89,0,0,0-11.67,1.128V67.467a5.89,5.89,0,0,0,11.67,1.125Z"/><path class="cls-2" d="M32.495,68.592a5.874,5.874,0,0,1-7.979-6.739,5.777,5.777,0,0,1-3.913-1.72,5.883,5.883,0,0,1-.354-7.93,5.887,5.887,0,0,1,0-10.684,5.876,5.876,0,0,1,4.267-9.641,6.008,6.008,0,0,1-.149-1.31,5.886,5.886,0,0,1,5.886-5.886,6.014,6.014,0,0,1,2.242.445,5.887,5.887,0,0,1,11.663,1.128V67.467a5.886,5.886,0,0,1-11.663,1.125Z"/><path class="cls-2" d="M46.184,10.633A1.366,1.366,0,0,0,44.817,12v5.468a1.367,1.367,0,0,0,2.734,0V12A1.366,1.366,0,0,0,46.184,10.633Z"/><path class="cls-2" d="M86,47.443H80.526a1.368,1.368,0,0,0,0,2.735H86a1.368,1.368,0,0,0,0-2.735Z"/><path class="cls-2" d="M11.841,47.443H6.373a1.368,1.368,0,0,0,0,2.735h5.468a1.368,1.368,0,0,0,0-2.735Z"/><path class="cls-2" d="M75.419,22.643l-3.866,3.866a1.367,1.367,0,0,0,1.933,1.933l3.866-3.866a1.367,1.367,0,1,0-1.933-1.933Z"/><path class="cls-2" d="M26.882,72.179l-3.866,3.866a1.367,1.367,0,1,0,1.933,1.933l3.866-3.866a1.367,1.367,0,0,0-1.933-1.933Z"/><path class="cls-2" d="M67.485,72.179a1.367,1.367,0,0,0-1.933,1.933l3.866,3.866a1.367,1.367,0,0,0,1.934-1.933Z"/><path class="cls-2" d="M16.949,22.643a1.367,1.367,0,0,0-1.933,1.933l3.866,3.866a1.367,1.367,0,0,0,1.933-1.933Z"/></svg>