<svg id="Capa_1" data-name="Capa 1" xmlns="http://www.w3.org/2000/svg" viewBox="0 0 92.373 92.378"><defs><style>.cls-1{fill:#d1572f;}.cls-2{fill:#fff;}</style></defs><path class="cls-1" d="M92.373,46.184A46.187,46.187,0,1,1,46.191,0,46.191,46.191,0,0,1,92.373,46.184"/><path class="cls-2" d="M45.846,16.745a1.085,1.085,0,0,0-1.086,1.087v4.347a1.087,1.087,0,0,0,2.173,0V17.832A1.086,1.086,0,0,0,45.846,16.745Z"/><path class="cls-2" d="M71.927,42.826H67.58a1.087,1.087,0,0,0,0,2.173h4.347a1.087,1.087,0,1,0,0-2.173Z"/><path class="cls-2" d="M24.112,42.826H19.766a1.087,1.087,0,1,0,0,2.173h4.346a1.087,1.087,0,1,0,0-2.173Z"/><path class="cls-2" d="M63.52,24.7l-3.073,3.073a1.087,1.087,0,0,0,1.537,1.537l3.073-3.073A1.087,1.087,0,0,0,63.52,24.7Z"/><path class="cls-2" d="M29.709,58.514l-3.073,3.073a1.086,1.086,0,1,0,1.536,1.536l3.073-3.073a1.086,1.086,0,1,0-1.536-1.536Z"/><path class="cls-2" d="M61.984,58.514a1.086,1.086,0,0,0-1.537,1.536l3.073,3.073a1.086,1.086,0,0,0,1.537-1.536Z"/><path class="cls-2" d="M28.172,24.7a1.086,1.086,0,0,0-1.536,1.537l3.073,3.073a1.086,1.086,0,1,0,1.536-1.537Z"/><path class="cls-2" d="M45.846,26.525a17.383,17.383,0,0,0-5.433,33.9v3.02H51.28v-3.02a17.383,17.383,0,0,0-5.434-33.9Zm0,6.521A10.879,10.879,0,0,0,34.979,43.913a1.087,1.087,0,0,1-2.173,0,13.055,13.055,0,0,1,13.04-13.041,1.087,1.087,0,1,1,0,2.174Z"/><polygon class="cls-2" points="40.413 65.647 40.413 71.08 42.586 71.08 42.586 74.34 49.106 74.34 49.106 71.08 51.28 71.08 51.28 65.647 40.413 65.647"/></svg>