<svg id="Capa_1" data-name="Capa 1" xmlns="http://www.w3.org/2000/svg" viewBox="0 0 94.54 95.257"><defs><style>.cls-1{fill:#d77a33;}.cls-2{fill:#fff;}</style></defs><path class="cls-1" d="M94.54,47.626A47.271,47.271,0,1,1,47.273,0,47.451,47.451,0,0,1,94.54,47.626"/><path class="cls-2" d="M65.86,58.542A21.295,21.295,0,1,0,35.744,28.427a20.881,20.881,0,0,0-3.2,25.7.894.894,0,0,1-.124,1.067L21.553,66.059c-2.163,2.162-2.677,5.186-.76,7.1l.331.33c1.917,1.918,4.941,1.4,7.1-.759L39.069,61.892a.908.908,0,0,1,1.09-.146A20.882,20.882,0,0,0,65.86,58.542ZM39.676,54.611a15.735,15.735,0,1,1,22.252,0A15.752,15.752,0,0,1,39.676,54.611Z"/><path class="cls-2" d="M41.035,42.221a2.2,2.2,0,0,1-2.023-3.055,13.852,13.852,0,0,1,18.134-7.35,2.2,2.2,0,0,1-1.714,4.048A9.45,9.45,0,0,0,43.06,40.879,2.2,2.2,0,0,1,41.035,42.221Z"/></svg>