<svg id="Capa_1" data-name="Capa 1" xmlns="http://www.w3.org/2000/svg" viewBox="0 0 92.373 92.379"><defs><style>.cls-1{fill:#64afa9;}.cls-2{fill:#fff;}</style></defs><path class="cls-1" d="M92.373,46.188A46.187,46.187,0,1,1,46.189,0,46.191,46.191,0,0,1,92.373,46.188"/><path class="cls-2" d="M34.6,44.122a16.881,16.881,0,0,0-6.2-1.157c-7.891,0-14.281,5.228-14.281,11.715S20.5,66.2,28.392,66.2a14.34,14.34,0,0,0,2.033-.145,15.969,15.969,0,0,0,6,3.05,8.852,8.852,0,0,1-2.082-3.776c4.592-1.756,7.84-5.355,8.273-9.666A16.592,16.592,0,0,1,34.6,44.122Zm-9.835,12.4A1.937,1.937,0,1,1,26.7,54.584,1.942,1.942,0,0,1,24.761,56.52Zm6.293,0a1.937,1.937,0,1,1,1.936-1.936A1.941,1.941,0,0,1,31.054,56.52Z"/><path class="cls-2" d="M56.766,24.082c-11.474,0-20.817,7.649-20.817,17.089a14.112,14.112,0,0,0,.153,1.98,16.592,16.592,0,0,0,8.024,11.543,22.119,22.119,0,0,0,4.119,2.017,12.934,12.934,0,0,1-2.9,5.131,21.959,21.959,0,0,0,8.278-4.018,22.465,22.465,0,0,0,3.147.194c11.473,0,20.816-7.407,20.816-16.847S68.239,24.082,56.766,24.082ZM48.052,43.93a2.9,2.9,0,1,1,2.905-2.9A2.913,2.913,0,0,1,48.052,43.93Zm8.714,0a2.9,2.9,0,1,1,2.9-2.9A2.913,2.913,0,0,1,56.766,43.93Zm8.714,0a2.9,2.9,0,1,1,2.9-2.9A2.913,2.913,0,0,1,65.48,43.93Z"/></svg>