<svg id="Capa_1" data-name="Capa 1" xmlns="http://www.w3.org/2000/svg" viewBox="0 0 92.373 92.373"><defs><style>.cls-1{fill:#62338b;}.cls-2{fill:#fff;}</style></defs><path class="cls-1" d="M92.373,46.183A46.187,46.187,0,1,1,46.184,0,46.188,46.188,0,0,1,92.373,46.183"/><path class="cls-2" d="M46.184,28.489a10.54,10.54,0,1,0-10.54-10.54,10.541,10.541,0,0,0,10.54,10.54"/><path class="cls-2" d="M60.067,40.35c0-5.077-2.327-9.195-13.883-9.195S32.3,35.273,32.3,40.35a6.383,6.383,0,0,0,.1,1.061,3.881,3.881,0,0,0-.1.881l1.987,15.757a4.093,4.093,0,0,0,2.663,3.835,6.648,6.648,0,0,0-.056.783l1.327,17.559c0,2.273,1.236,4.11,2.757,4.11H51.394c1.513,0,2.746-1.837,2.746-4.11l1.33-17.559c0-.266-.024-.531-.049-.783a4.1,4.1,0,0,0,2.662-3.835l1.984-15.757a3.882,3.882,0,0,0-.1-.881,5.718,5.718,0,0,0,.1-1.061"/></svg>