<svg id="Capa_1" data-name="Capa 1" xmlns="http://www.w3.org/2000/svg" viewBox="0 0 92.373 92.373"><defs><style>.cls-1{fill:#4574af;}.cls-2{fill:#fff;}</style></defs><path class="cls-1" d="M92.373,46.183A46.187,46.187,0,1,1,46.185,0,46.191,46.191,0,0,1,92.373,46.183"/><path class="cls-2" d="M70.438,63.961a3.655,3.655,0,0,0-3.613,3.15h-5a3.647,3.647,0,0,0-7.226,0H50.5a.87.87,0,0,1-.868-.87V53.1H61.7a12.882,12.882,0,1,0,0-25.763,12.763,12.763,0,0,0-4.027.654,15.439,15.439,0,0,0-29.767-.6A12.865,12.865,0,0,0,28.3,53.07H40.458v6.052a.87.87,0,0,1-.869.87h-4.1a3.646,3.646,0,0,0-7.225,0h-5a3.651,3.651,0,1,0,0,1h5a3.646,3.646,0,0,0,7.225,0h4.1a1.874,1.874,0,0,0,1.872-1.872V45.483H44.24V69.534a.87.87,0,0,1-.869.87H39.2a3.652,3.652,0,1,0,0,1h4.176a1.874,1.874,0,0,0,1.872-1.872V45.483h3.386V66.241A1.874,1.874,0,0,0,50.5,68.114h4.1a3.647,3.647,0,0,0,7.225,0h5a3.649,3.649,0,1,0,3.613-4.153Z"/></svg>